# AST/ASF file generated using VICON BodyLanguage
# -----------------------------------------------
:version 1.10
:name VICON
:units
  mass 1.0
  length 0.45
  angle deg
:documentation
   .ast/.asf automatically generated from VICON data using
   VICON BodyBuilder and BodyLanguage model FoxedUp or BRILLIANT.MOD
:root
   order TX TY TZ RX RY RZ
   axis XYZ
   position 0 0 0  
   orientation 0 -0 0 
:bonedata
  begin
     id 1 
     name lhipjoint
     direction 0.515797 -0.759363 0.396637 
     length 2.47888 
     axis 0 -0 0  XYZ
  end
  begin
     id 2 
     name lfemur
     direction 0.34202 -0.939693 0  
     length 6.81885  
     axis 0 -0 20  XYZ
    dof rx ry rz
    limits (-160.0 20.0)
           (-70.0 70.0)
           (-60.0 70.0)
  end
  begin
     id 3 
     name ltibia
     direction 0.342037 -0.939687 0   
     length 7.89258   
     axis 0 -0 20   XYZ
    dof rx
    limits (-10.0 170.0)
  end
  begin
     id 4 
     name lfoot
     direction 0.173497 -0.476678 0.861787   
     length 2.51543   
     axis -90 -1.13533e-015 20   XYZ
    dof rx rz
    limits (-45.0 90.0)
           (-70.0 20.0)
  end
  begin
     id 5 
     name ltoes
     direction 1.53564e-011 -4.21897e-011 1   
     length 1.21388   
     axis -90 -1.13533e-015 20   XYZ
    dof rx
    limits (-90.0 20.0)
  end
  begin
     id 6 
     name rhipjoint
     direction -0.489454 -0.772941 0.403729   
     length 2.43534  
     axis 0 -0 0  XYZ 
  end
  begin
     id 7 
     name rfemur
     direction -0.34202 -0.939693 0   
     length 7.10357   
     axis 0 -0 -20   XYZ
    dof rx ry rz
    limits (-160.0 20.0)
           (-70.0 70.0)
           (-70.0 60.0)
  end
  begin
     id 8 
     name rtibia
     direction -0.34202 -0.939693 0   
     length 9.16127   
     axis 0 -0 -20   XYZ
    dof rx
    limits (-10.0 170.0)
 end
 begin
     id 9 
     name rfoot
     direction -0.270974 -0.748671 0.605033   
     length 1.74894  
     axis -90 1.13533e-015 -20   XYZ
    dof rx rz
    limits (-45.0 90.0)
           (-20.0 70.0)
  end
  begin
     id 10 
     name rtoes
     direction -1.53557e-011 -4.21759e-011 1   
     length 0.787585   
     axis -90 1.13533e-015 -20   XYZ
    dof rx
    limits (-90.0 20.0)
  end
  begin
     id 11 
     name lowerback
     direction -0.0140249 0.999561 0.0260968   
     length 2.16963   
     axis 0 -0 0   XYZ
    dof rx ry rz
    limits (-20.0 45.0)
           (-30.0 30.0)
           (-30.0 30.0)
  end
  begin
     id 12 
     name upperback
     direction 0.00860018 0.999959 -0.002711   
     length 2.1726   
     axis 0 -0 0   XYZ
    dof rx ry rz
    limits (-20.0 45.0)
           (-30.0 30.0)
           (-30.0 30.0)
  end
  begin
     id 13 
     name thorax
     direction 0.015211 0.999782 -0.0143191   
     length 2.17061   
     axis 0 -0 0   XYZ
    dof rx ry rz
    limits (-20.0 45.0)
           (-30.0 30.0)
           (-30.0 30.0)
  end
  begin
     id 14 
     name lowerneck
     direction -0.0140143 0.999447 0.030145   
     length 2.26749   
     axis 0 -0 0   XYZ
    dof rx ry rz
    limits (-20.0 45.0)
           (-30.0 30.0)
           (-30.0 30.0)
  end
  begin
     id 15 
     name upperneck
     direction 0.118062 0.961438 -0.248392   
     length 2.22728   
     axis 0 -0 0   XYZ
    dof rx ry rz
    limits (-20.0 45.0)
           (-30.0 30.0)
           (-30.0 30.0)
  end
  begin
     id 16
     name head
     direction 0.0431885 0.9954 -0.085514  
     length 2.28786  
     axis 0 -0 0   XYZ
    dof rx ry rz
    limits (-20.0 45.0)
           (-30.0 30.0)
           (-30.0 30.0)
  end
  begin
     id 17 
     name lclavicle
     direction 0.912126 0.409548 0.0172323  
     length 4.31571  
     axis 0 -0 0   XYZ
    dof ry rz
    limits (-20.0 10.0)
           (0.0 20.0)
  end
  begin
     id 18 
     name lhumerus
     direction 1 -4.48977e-011 1.93091e-027   
     length 5.13658   
     axis 180 -30 -90   XYZ
    dof rx ry rz
    limits (-60.0 90.0)
           (-90.0 90.0)
           (-90.0 90.0)
  end
  begin
     id 19
     name lradius
     direction 1 -4.48916e-011 6.84018e-027   
     length 3.22473   
     axis 180 -30 -90   XYZ
    dof rx
    limits (-10.0 170.0)
  end
  begin
     id 20
     name lwrist
     direction 1 -4.48987e-011 7.01981e-027   
     length 1.61236   
     axis -4.37994e-015 90 90   XYZ
    dof ry
    limits (-180.0 0.0)
 end
  begin
     id 21 
     name lhand
     direction 1 -4.49037e-011 1.40335e-026   
     length 0.936406   
     axis -8.96029e-015 90 90   XYZ
    dof rx rz
    limits (-90.0 90.0)
           (-45.0 45.0)
  end
  begin
     id 22 
     name lfingers
     direction 1 -4.48886e-011 2.8104e-026   
     length 0.754955   
     axis -1.79203e-014 90 90   XYZ
    dof rx
    limits (0.0 90.0)
  end
  begin
     id 23
     name lthumb
     direction 0.707107 -6.34937e-011 0.707107   
     length 1.08397   
     axis -90 45 -4.48555e-014   XYZ
    dof rx rz
    limits (-45.0 45.0)
           (-45.0 45.0)
  end
  begin
     id 24 
     name rclavicle
     direction -0.947962 0.317997 0.0156638   
     length 4.86918  
     axis 0 -0 0   XYZ 
    dof ry rz
    limits (-10.0 20.0)
           (-20.0 0.0)
  end
  begin
     id 25 
     name rhumerus
     direction -1 -4.48951e-011 2.80534e-018  
     length 5.60911   
     axis 180 30 90   XYZ
    dof rx ry rz
    limits (-90.0 60.0)
           (-90.0 90.0)
           (-90.0 90.0)
  end
  begin
     id 26 
     name rradius
     direction -1 -4.4898e-011 2.11315e-027   
     length 3.38704   
     axis 180 30 90   XYZ
    dof rx
    limits (-10.0 170.0)
  end
  begin
     id 27 
     name rwrist
     direction -1 -4.48933e-011 7.02314e-027   
     length 1.69352   
     axis -4.37994e-015 -90 -90   XYZ
    dof ry
    limits (-180.0 0.0)
  end
  begin
     id 28
     name rhand
     direction -1 -4.48937e-011 1.40458e-026   
     length 0.755878   
     axis -8.96029e-015 -90 -90   XYZ
    dof rx rz
    limits (-90.0 90.0)
           (-45.0 45.0)
  end
  begin
     id 29
     name rfingers
     direction -1 -4.4901e-011 2.80737e-026   
     length 0.609409   
     axis -1.79203e-014 -90 -90   XYZ
    dof rx
    limits (0.0 90.0)
  end
  begin
     id 30
     name rthumb
     direction -0.707107 -6.34968e-011 0.707107   
     length 0.874992   
     axis -90 -45 4.48555e-014   XYZ
    dof rx rz
    limits (-45.0 45.0)
           (-45.0 45.0)
  end
:hierarchy
  begin
    root lhipjoint rhipjoint lowerback
    lhipjoint lfemur
    lfemur ltibia
    ltibia lfoot
    lfoot ltoes
    rhipjoint rfemur
    rfemur rtibia
    rtibia rfoot
    rfoot rtoes
    lowerback upperback
    upperback thorax
    thorax lowerneck lclavicle rclavicle
    lowerneck upperneck
    upperneck head
    lclavicle lhumerus
    lhumerus lradius
    lradius lwrist
    lwrist lhand lthumb
    lhand lfingers
    rclavicle rhumerus
    rhumerus rradius
    rradius rwrist
    rwrist rhand rthumb
    rhand rfingers
  end

#!OML:ASF C:\ViconDB\ViconDB\414\Spring2016\041811\Spring2016.ASF
:FULLY-SPECIFIED
:DEGREES
124
root 8.96324 17.7702 -0.666461 -179.711 -4.37138 -178.524
lowerback 5.19251 -0.685014 -0.985569
upperback 2.1268 -1.05832 1.44016
thorax -0.679875 -0.58756 2.09221
lowerneck -10.2778 -4.23107 -11.2148
upperneck 12.3055 -7.42729 18.1243
head 6.5307 -3.18321 7.08515
rclavicle -7.74018e-015 -8.44835e-015
rhumerus -51.5054 -24.4764 -73.2531
rradius 32.9083
rwrist 44.9442
rhand -33.4415 -12.4582
rfingers 7.12502
rthumb -6.64039 -42.3341
lclavicle -7.74018e-015 -8.44835e-015
lhumerus -37.2324 -10.8832 93.7293
lradius 37.7107
lwrist -26.0532
lhand -29.2324 14.1666
lfingers 7.12502
lthumb -2.57619 44.1308
rfemur -28.0482 -10.4773 22.8866
rtibia 37.5967
rfoot -163.633 3.24497
rtoes -13.3574
lfemur 11.1732 -3.81275 -14.4944
ltibia 23.9536
lfoot -20.2668 5.8103
ltoes -27.0632
125
root 9.00462 17.7631 -0.830792 -179.933 -4.14005 -178.381
lowerback 5.15671 -0.674943 -0.668805
upperback 2.14909 -1.03304 1.46829
thorax -0.643229 -0.575451 1.94084
lowerneck -10.1914 -4.1742 -11.1063
upperneck 12.4182 -7.32977 17.8416
head 6.51817 -3.14592 6.98171
rclavicle -5.95112e-015 -3.16068e-014
rhumerus -51.5541 -24.8221 -73.0528
rradius 32.5892
rwrist 45.1991
rhand -33.6112 -12.6991
rfingers 7.12502
rthumb -6.80427 -42.5698
lclavicle -5.95112e-015 -3.16068e-014
lhumerus -37.3558 -10.1719 93.2956
lradius 37.1596
lwrist -26.7411
lhand -29.1174 14.2666
lfingers 7.12502
lthumb -2.46512 44.2321
rfemur -27.4814 -10.7068 23.1319
rtibia 38.0025
rfoot -163.036 3.92482
rtoes -14.3105
lfemur 10.2873 -3.59238 -13.9968
ltibia 26.865
lfoot -19.2965 5.1736
ltoes -26.696
126
root 9.0468 17.7553 -0.986462 -180.175 -3.87172 -178.302
lowerback 5.24506 -0.645344 -0.385104
upperback 2.18079 -0.985138 1.47458
thorax -0.66635 -0.552373 1.78644
lowerneck -10.3128 -4.13192 -11.2691
upperneck 12.7385 -7.26948 17.7824
head 6.63265 -3.11515 7.003
rclavicle 1.2424e-015 -2.70347e-014
rhumerus -51.4475 -25.1012 -72.8981
rradius 32.2247
rwrist 45.3696
rhand -33.7525 -12.9921
rfingers 7.12502
rthumb -6.94066 -42.8584
lclavicle 1.2424e-015 -2.70347e-014
lhumerus -37.3442 -9.02997 92.7655
lradius 36.3733
lwrist -27.4833
lhand -29.21 14.0531
lfingers 7.12502
lthumb -2.5545 44.0175
rfemur -26.863 -10.8715 23.3069
rtibia 38.3242
rfoot -162.74 4.44857
rtoes -14.7048
lfemur 9.19322 -3.27336 -13.5497
ltibia 30.0137
lfoot -18.1339 4.64526
ltoes -27.105
127
root 9.09213 17.7537 -1.14369 -180.345 -3.57536 -178.262
lowerback 5.27848 -0.605816 -0.237136
upperback 2.17128 -0.926338 1.49528
thorax -0.698654 -0.522813 1.72193
lowerneck -10.3264 -4.04125 -11.2784
upperneck 12.9709 -7.13863 17.6081
head 6.67917 -3.05656 6.96364
rclavicle -7.87684e-015 1.53064e-014
rhumerus -51.3557 -25.312 -72.8264
rradius 31.9783
rwrist 45.0972
rhand -33.79 -13.147
rfingers 7.12502
rthumb -6.97682 -43.0121
lclavicle -7.87684e-015 1.53064e-014
lhumerus -37.4695 -8.38931 92.3761
lradius 35.7467
lwrist -27.4868
lhand -29.2742 14.2715
lfingers 7.12502
lthumb -2.6165 44.2352
rfemur -26.2214 -11.2535 23.4603
rtibia 38.488
rfoot -162.611 5.08258
rtoes -14.664
lfemur 7.89 -2.73796 -13.0424
ltibia 33.2321
lfoot -16.5288 3.99453
ltoes -27.8711
